<svg width="192" height="70" viewBox="0 0 192 70" fill="none" xmlns="http://www.w3.org/2000/svg">
<g filter="url(#filter0_d_605_13452)">
<path d="M76 32.6432C76 50.5134 61.2254 65 43 65C24.7746 65 10 50.5134 10 32.6432C10 14.773 24.7746 0 43 0C61.2254 0 76 14.773 76 32.6432Z" fill="#0E84F2"/>
</g>
<path d="M28.6558 30.8325C29.3719 30.8211 30.0489 30.9161 30.687 31.1175C31.3248 31.3027 31.8829 31.595 32.3613 31.9943C32.856 32.3934 33.2464 32.8836 33.5323 33.4651C33.8183 34.0465 33.9674 34.7197 33.9796 35.4846C33.9825 35.6636 33.9787 35.9404 33.9684 36.3149C33.9744 36.6892 33.9811 37.1124 33.9887 37.5843C33.9959 38.04 34.0036 38.5201 34.0116 39.0245C34.0197 39.529 34.0353 40.0009 34.0586 40.44C34.0819 40.8791 34.1124 41.2612 34.1501 41.5861C34.1878 41.9111 34.24 42.1219 34.3067 42.2185L30.1324 42.285C30.3654 41.5813 30.5486 40.8215 30.6821 40.0055C30.8156 39.1894 30.8764 38.4071 30.8645 37.6585C30.8549 37.0564 30.7807 36.4878 30.6419 35.9528C30.5195 35.4176 30.3086 34.9571 30.0095 34.5711C29.7263 34.1687 29.347 33.8573 28.8714 33.637C28.4121 33.4164 27.8407 33.3116 27.1572 33.3225C26.4411 33.3339 25.7524 33.5239 25.0908 33.8926C24.4456 34.261 23.8994 34.7174 23.4523 35.2617C23.4443 35.7827 23.4446 36.3117 23.4531 36.8488C23.4614 37.3695 23.4699 37.8984 23.4784 38.4355C23.4797 38.5168 23.4823 38.6796 23.4862 38.9237C23.4901 39.1678 23.4946 39.4526 23.4998 39.7781C23.505 40.1035 23.5186 40.4452 23.5406 40.8029C23.5626 41.1607 23.5841 41.4941 23.6053 41.803C23.6266 42.112 23.6552 42.3801 23.6914 42.6074C23.7273 42.8185 23.7701 42.948 23.8197 42.996L19.499 43.0649C19.5628 42.9825 19.6153 42.7049 19.6566 42.2322C19.7142 41.7592 19.7622 41.1969 19.8006 40.5451C19.8551 39.8768 19.9007 39.1599 19.9373 38.3942C19.9737 37.6123 20.0027 36.8793 20.0243 36.1953C20.0457 35.495 20.0604 34.8843 20.0684 34.3633C20.0926 33.842 20.1115 33.4917 20.1249 33.3125C20.1535 32.0423 20.1574 30.7563 20.1367 29.4544C20.1354 29.373 20.1329 29.2184 20.1293 28.9906C20.1254 28.7465 20.1128 28.4699 20.0916 28.161C20.0864 27.8355 20.073 27.502 20.0513 27.1605C20.0293 26.8028 19.9997 26.4777 19.9625 26.1852C19.925 25.8766 19.872 25.617 19.8036 25.4064C19.7514 25.1956 19.6843 25.0746 19.6024 25.0434L24.2657 25.0179C24.1843 25.0192 24.1203 25.0853 24.0735 25.2163C24.0268 25.3473 23.9957 25.4373 23.9802 25.4864C23.8567 25.9116 23.7744 26.3605 23.7331 26.8333C23.7078 27.2894 23.6823 27.7375 23.6568 28.1774C23.6029 28.8782 23.5652 29.5788 23.5438 30.2791C23.5221 30.9631 23.5006 31.6553 23.4792 32.3556C24.2032 31.8231 25.0274 31.4438 25.9516 31.2174C26.8756 30.9748 27.777 30.8465 28.6558 30.8325ZM46.2304 35.0696C46.3237 34.7914 46.4005 34.5053 46.4609 34.2113C46.5211 33.9011 46.5487 33.5913 46.5438 33.2821C46.5329 32.5986 46.3377 32.0971 45.9582 31.7776C45.5947 31.4416 45.0712 31.279 44.3877 31.2899C43.9972 31.2961 43.5341 31.3523 42.9986 31.4585C42.4792 31.5482 41.9852 31.7026 41.5166 31.9216C41.048 32.1407 40.6456 32.4239 40.3093 32.7711C39.9892 33.118 39.8332 33.5437 39.8413 34.0482C39.8472 34.4225 40.0313 34.737 40.3935 34.9917C40.7717 35.2298 41.2062 35.4264 41.697 35.5813C42.1875 35.72 42.6776 35.8262 43.1671 35.8998C43.6729 35.9731 44.0564 36.0321 44.3175 36.0768C44.7257 36.1516 45.24 36.2493 45.8605 36.3696C46.497 36.4734 47.1101 36.6427 47.6998 36.8775C48.2893 37.096 48.7985 37.3808 49.2273 37.7321C49.6559 38.0671 49.8745 38.5032 49.883 39.0402C49.8926 39.6423 49.6647 40.1506 49.1992 40.565C48.7338 40.9793 48.1694 41.3139 47.506 41.5686C46.8589 41.8231 46.1783 42.013 45.4641 42.1384C44.7496 42.2474 44.1563 42.3057 43.6844 42.3132C42.7079 42.3288 41.7386 42.2791 40.7764 42.1642C39.8139 42.0331 38.8662 41.8121 37.9334 41.5014C37.8187 41.4544 37.6304 41.3842 37.3685 41.2907C37.1063 41.1809 36.8278 41.0714 36.533 40.9622C36.2543 40.8364 35.9921 40.7266 35.7464 40.6328C35.5008 40.5391 35.3454 40.4927 35.2803 40.4938C35.3126 40.477 35.425 40.3775 35.6174 40.1954C35.8098 40.0133 36.0101 39.8147 36.2183 39.5998C36.4425 39.3683 36.6426 39.1535 36.8185 38.9554C36.9944 38.7573 37.0901 38.6336 37.1056 38.5846C37.9454 39.1897 38.8722 39.6308 39.8858 39.9076C40.9157 40.1842 41.9433 40.3143 42.9686 40.298C43.0825 40.2962 43.3021 40.2845 43.6273 40.2631C43.9523 40.2254 44.2851 40.1712 44.6258 40.1007C44.9828 40.0299 45.2987 39.9353 45.5736 39.817C45.8484 39.6987 45.9844 39.55 45.9815 39.371C45.9774 39.1106 45.7462 38.9027 45.2879 38.7472C44.8297 38.5917 44.2495 38.4463 43.5474 38.311C42.8615 38.1754 42.1185 38.0245 41.3182 37.8582C40.5179 37.6919 39.7657 37.476 39.0615 37.2105C38.3733 36.9284 37.798 36.5795 37.3356 36.1636C36.8732 35.7477 36.6367 35.2062 36.626 34.539C36.6105 33.5625 36.8576 32.7284 37.3675 32.0366C37.8934 31.3283 38.5517 30.7562 39.3424 30.3203C40.1328 29.8682 40.9902 29.5371 41.9147 29.3271C42.8392 29.117 43.7083 29.0055 44.522 28.9925C45.1893 28.9819 45.833 29.0286 46.4532 29.1327C47.0732 29.2205 47.6214 29.3989 48.0977 29.6681C48.5741 29.9372 48.9545 30.3137 49.2389 30.7975C49.5396 31.281 49.6962 31.9134 49.7086 32.6945C49.7149 33.0851 49.6885 33.4762 49.6297 33.8678C49.5871 34.2592 49.5281 34.6426 49.4527 35.0182L46.2304 35.0696ZM59.1842 35.8643C60.0752 36.6151 60.966 37.3579 61.8567 38.0925C62.7635 38.8105 63.6704 39.5367 64.5774 40.2711C64.9731 40.5903 65.3773 40.9257 65.7898 41.2773C66.2024 41.6288 66.6383 41.9149 67.0976 42.1354L62.6792 42.2059C62.6291 42.1253 62.472 41.9731 62.208 41.7494C61.9438 41.5095 61.6221 41.246 61.2432 40.9591C60.8805 40.6718 60.4848 40.3607 60.0563 40.0257C59.6277 39.6907 59.2157 39.3717 58.8202 39.0687C58.4247 38.7657 58.0623 38.5029 57.7332 38.2803C57.4201 38.0411 57.1895 37.8657 57.0412 37.7541L56.1744 38.5249C56.1773 38.7039 56.1817 38.9805 56.1877 39.3548C56.1934 39.7129 56.2075 40.087 56.23 40.4773C56.2525 40.8677 56.2827 41.2334 56.3207 41.5747C56.375 41.9156 56.4356 42.1426 56.5025 42.2555L52.1817 42.3243C52.245 42.2094 52.306 41.9479 52.3646 41.54C52.4232 41.1322 52.4721 40.6268 52.5113 40.0238C52.5506 39.4209 52.5806 38.753 52.6015 38.0202C52.6384 37.2708 52.6669 36.5053 52.687 35.7236C52.7234 34.9417 52.7436 34.1682 52.7477 33.403C52.7678 32.6214 52.7808 31.9049 52.7867 31.2537C52.8086 30.5859 52.8155 29.9998 52.8075 29.4953C52.8157 28.9906 52.8179 28.6161 52.814 28.372C52.8114 28.2093 52.8069 27.9245 52.8004 27.5177C52.7936 27.0945 52.7705 26.6635 52.7309 26.2246C52.6911 25.7695 52.6357 25.3553 52.5646 24.982C52.4936 24.6088 52.4004 24.3824 52.2852 24.3028L56.9481 24.2529C56.8192 24.3364 56.7098 24.623 56.62 25.1127C56.5301 25.6025 56.4502 26.2061 56.3802 26.9234C56.3263 27.6242 56.2816 28.3982 56.2463 29.2452C56.2107 30.0759 56.1827 30.874 56.1624 31.6394C56.1583 32.4045 56.1529 33.0883 56.1462 33.6907C56.1396 34.2931 56.138 34.7082 56.1417 34.9361C57.0891 34.1233 58.0448 33.3186 59.0088 32.5219C59.9891 31.7249 60.928 30.8879 61.8256 30.0109L66.0975 29.9428C65.6781 30.1774 65.2839 30.4685 64.915 30.8162C64.5624 31.1637 64.2013 31.4869 63.8317 31.7858C63.0452 32.482 62.2665 33.1618 61.4957 33.8252C60.725 34.4886 59.9544 35.1683 59.1842 35.8643Z" fill="white"/>
<defs>
<filter id="filter0_d_605_13452" x="8" y="0" width="70" height="70" filterUnits="userSpaceOnUse" color-interpolation-filters="sRGB">
<feFlood flood-opacity="0" result="BackgroundImageFix"/>
<feColorMatrix in="SourceAlpha" type="matrix" values="0 0 0 0 0 0 0 0 0 0 0 0 0 0 0 0 0 0 127 0" result="hardAlpha"/>
<feOffset dy="3"/>
<feGaussianBlur stdDeviation="1"/>
<feComposite in2="hardAlpha" operator="out"/>
<feColorMatrix type="matrix" values="0 0 0 0 0 0 0 0 0 0 0 0 0 0 0 0 0 0 0.25 0"/>
<feBlend mode="normal" in2="BackgroundImageFix" result="effect1_dropShadow_605_13452"/>
<feBlend mode="normal" in="SourceGraphic" in2="effect1_dropShadow_605_13452" result="shape"/>
</filter>
</defs>
</svg>
